<?xml version="1.0" encoding="utf-8"?>
<!-- Generator: Adobe Illustrator 19.1.0, SVG Export Plug-In . SVG Version: 6.00 Build 0)  -->
<svg version="1.1" id="图层_1" xmlns="http://www.w3.org/2000/svg" xmlns:xlink="http://www.w3.org/1999/xlink" x="0px" y="0px"
	 viewBox="0 0 40 40" style="enable-background:new 0 0 40 40;" xml:space="preserve">
<style type="text/css">
	.st0{fill:none;}
	.st1{fill:#FFFFFF;}
</style>
<g>
	<path class="st0" d="M28,12c0-4.4-3.6-8-8-8s-8,3.6-8,8c0,2.7,1.4,5.1,3.4,6.5c1.5-0.3,3-0.5,4.6-0.5s3.1,0.2,4.6,0.5
		C26.6,17.1,28,14.7,28,12z"/>
	<g>
		<path class="st1" d="M4,38.1c0,0,0-0.1,0-0.1c0-7,4.6-13,10.9-15.2c1.6,0.7,3.3,1.2,5.1,1.2s3.6-0.4,5.1-1.2C31.4,25,36,31,36,38
			c0,0,0,0.1,0,0.1h4c0,0,0-0.1,0-0.1c0-7.9-4.5-14.6-11.1-17.9c2-2.1,3.1-5,3.1-8.1c0-6.6-5.4-12-12-12C13.4,0,8,5.4,8,12
			c0,3.1,1.2,6,3.1,8.1C4.6,23.4,0,30.1,0,38c0,0,0,0.1,0,0.1H4z M20,4c4.4,0,8,3.6,8,8c0,2.7-1.4,5.1-3.4,6.5
			C23.3,19.5,21.7,20,20,20s-3.3-0.5-4.6-1.5C13.4,17.1,12,14.7,12,12C12,7.6,15.6,4,20,4z"/>
	</g>
	<path class="st1" d="M38,40H2c-1.1,0-2-0.9-2-2v0c0-1.1,0.9-2,2-2h36c1.1,0,2,0.9,2,2v0C40,39.1,39.1,40,38,40z"/>
</g>
</svg>
