<?xml version="1.0" encoding="utf-8"?>
<!-- Generator: Adobe Illustrator 19.1.0, SVG Export Plug-In . SVG Version: 6.00 Build 0)  -->
<svg version="1.1" id="图层_1" xmlns="http://www.w3.org/2000/svg" xmlns:xlink="http://www.w3.org/1999/xlink" x="0px" y="0px"
	 viewBox="0 0 40 40" enable-background="new 0 0 40 40" xml:space="preserve">
<path fill="#F90000" d="M20,0C8.954,0,0,8.954,0,20c0,11.046,8.954,20,20,20s20-8.954,20-20C40,8.954,31.046,0,20,0z M20,38
	c-9.941,0-18-8.059-18-18c0-9.941,8.059-18,18-18s18,8.059,18,18C38,29.941,29.941,38,20,38z"/>
<path fill="#F90000" d="M19.996,8L19.996,8C19.446,8,19,7.554,19,7.004V2h2v4.996C21,7.55,20.55,8,19.996,8z"/>
<path fill="#F90000" d="M20.004,32L20.004,32C20.554,32,21,32.446,21,32.996V38h-2v-4.996C19,32.45,19.45,32,20.004,32z"/>
<path fill="#F90000" d="M8,20.004L8,20.004C8,20.554,7.554,21,7.004,21H2v-2h4.996C7.55,19,8,19.45,8,20.004z"/>
<path fill="#F90000" d="M32,19.996L32,19.996C32,19.446,32.446,19,32.996,19H38v2h-4.996C32.45,21,32,20.55,32,19.996z"/>
<circle fill="#F90000" cx="20" cy="20" r="8"/>
</svg>
