<?xml version="1.0" encoding="utf-8"?>
<!-- Generator: Adobe Illustrator 19.1.0, SVG Export Plug-In . SVG Version: 6.00 Build 0)  -->
<svg version="1.1" id="图层_1" xmlns="http://www.w3.org/2000/svg" xmlns:xlink="http://www.w3.org/1999/xlink" x="0px" y="0px"
	 viewBox="0 0 40 40" enable-background="new 0 0 40 40" xml:space="preserve">
<path fill="#999999" d="M19,0C8.507,0,0,8.507,0,19c0,10.493,8.507,19,19,19s19-8.507,19-19C38,8.507,29.493,0,19,0z M19,36
	C9.611,36,2,28.389,2,19S9.611,2,19,2s17,7.611,17,17S28.389,36,19,36z"/>
<path fill="#999999" d="M38.229,39.643l-7.071-7.071c-0.389-0.389-0.389-1.025,0-1.414v0c0.389-0.389,1.025-0.389,1.414,0
	l7.071,7.071c0.389,0.389,0.389,1.025,0,1.414l0,0C39.254,40.032,38.618,40.032,38.229,39.643z"/>
</svg>
