<?xml version="1.0" encoding="utf-8"?>
<!-- Generator: Adobe Illustrator 19.1.0, SVG Export Plug-In . SVG Version: 6.00 Build 0)  -->
<svg version="1.1" id="图层_1" xmlns="http://www.w3.org/2000/svg" xmlns:xlink="http://www.w3.org/1999/xlink" x="0px" y="0px"
	 viewBox="0 0 52 52" style="enable-background:new 0 0 52 52;" xml:space="preserve">
<style type="text/css">
	.st0{fill:#F90000;}
	.st1{fill:#FFFFFF;}
</style>
<circle class="st0" cx="26" cy="25.8" r="26"/>
<path class="st1" d="M37,27.8H15c-1.1,0-2-0.9-2-2v0c0-1.1,0.9-2,2-2h22c1.1,0,2,0.9,2,2v0C39,26.9,38.1,27.8,37,27.8z"/>
<path class="st1" d="M28,14.8v22c0,1.1-0.9,2-2,2h0c-1.1,0-2-0.9-2-2v-22c0-1.1,0.9-2,2-2h0C27.1,12.8,28,13.7,28,14.8z"/>
</svg>
