<?xml version="1.0" encoding="utf-8"?>
<!-- Generator: Adobe Illustrator 19.1.0, SVG Export Plug-In . SVG Version: 6.00 Build 0)  -->
<svg version="1.1" id="图层_1" xmlns="http://www.w3.org/2000/svg" xmlns:xlink="http://www.w3.org/1999/xlink" x="0px" y="0px"
	 viewBox="-9 11 32 32" enable-background="new -9 11 32 32" xml:space="preserve">
<path fill="#F90000" d="M7,12c-8.284,0-15,6.716-15,15s6.716,15,15,15s15-6.716,15-15S15.284,12,7,12z"/>
<path fill="#FFFFFF" d="M12.657,34.071L-0.071,21.343c-0.389-0.389-0.389-1.025,0-1.414l0,0c0.389-0.389,1.025-0.389,1.414,0
	l12.728,12.728c0.389,0.389,0.389,1.025,0,1.414l0,0C13.682,34.46,13.046,34.46,12.657,34.071z"/>
<path fill="#FFFFFF" d="M-0.071,32.657l12.728-12.728c0.389-0.389,1.025-0.389,1.414,0l0,0c0.389,0.389,0.389,1.025,0,1.414
	L1.343,34.071c-0.389,0.389-1.025,0.389-1.414,0l0,0C-0.46,33.682-0.46,33.046-0.071,32.657z"/>
</svg>
