<?xml version="1.0" encoding="utf-8"?>
<!-- Generator: Adobe Illustrator 19.1.0, SVG Export Plug-In . SVG Version: 6.00 Build 0)  -->
<svg version="1.1" id="图层_1" xmlns="http://www.w3.org/2000/svg" xmlns:xlink="http://www.w3.org/1999/xlink" x="0px" y="0px"
	 viewBox="0 0 32 32" enable-background="new 0 0 32 32" xml:space="preserve">
<rect x="0" fill="#FFFFFF" width="32" height="32"/>
<g>
	<path fill="none" stroke="#272636" stroke-miterlimit="10" d="M0,0"/>
</g>
<path fill="#999999" d="M1,30.017h30c0.55,0,1,0.45,1,1v0c0,0.55-0.45,1-1,1H1c-0.55,0-1-0.45-1-1v0C0,30.467,0.45,30.017,1,30.017z
	"/>
<g>
	<g>
		<path fill="#999999" d="M11.672,0l8.655,0c1.834,0,3.326,1.484,3.326,3.309v7.317h3.595c1.748,0,2.395,1.166,2.552,1.523
			c0.157,0.359,0.576,1.628-0.62,2.903L18.371,26.577c-0.615,0.656-1.479,1.032-2.371,1.032c-0.891,0-1.756-0.376-2.371-1.032
			L2.821,15.052c-1.199-1.278-0.777-2.547-0.619-2.905c0.155-0.355,0.801-1.522,2.551-1.522h3.595V3.309
			C8.347,1.484,9.838,0,11.672,0z M16,25.742c0.378,0,0.746-0.161,1.009-0.442l10.808-11.524c0.37-0.395,0.352-0.695,0.272-0.878
			c-0.081-0.184-0.293-0.405-0.841-0.405h-5.435l-0.027-0.96V3.309c0-0.795-0.655-1.442-1.459-1.442h-8.655
			c-0.804,0-1.459,0.647-1.459,1.442v9.157l-0.96,0.026H4.752c-0.549,0-0.76,0.221-0.841,0.405c-0.08,0.184-0.098,0.483,0.272,0.878
			L14.991,25.3C15.254,25.58,15.623,25.742,16,25.742z"/>
	</g>
</g>
</svg>
