<?xml version="1.0" encoding="utf-8"?>
<!-- Generator: Adobe Illustrator 19.1.0, SVG Export Plug-In . SVG Version: 6.00 Build 0)  -->
<svg version="1.1" id="图层_1" xmlns="http://www.w3.org/2000/svg" xmlns:xlink="http://www.w3.org/1999/xlink" x="0px" y="0px"
	 viewBox="4 -4 40 40" enable-background="new 4 -4 40 40" xml:space="preserve">
<path fill="#FFFFFF" d="M23-4C12.507-4,4,4.507,4,15s8.507,19,19,19s19-8.507,19-19S33.493-4,23-4z M23,30c-8.284,0-15-6.716-15-15
	S14.716,0,23,0s15,6.716,15,15S31.284,30,23,30z"/>
<path fill="#FFFFFF" d="M40.414,35.417l-5.657-5.657c-0.778-0.778-0.778-2.051,0-2.828l0,0c0.778-0.778,2.051-0.778,2.828,0
	l5.657,5.657c0.778,0.778,0.778,2.051,0,2.828l0,0C42.465,36.194,41.192,36.194,40.414,35.417z"/>
</svg>
