<?xml version="1.0" encoding="utf-8"?>
<!-- Generator: Adobe Illustrator 19.1.0, SVG Export Plug-In . SVG Version: 6.00 Build 0)  -->
<svg version="1.1" id="图层_1" xmlns="http://www.w3.org/2000/svg" xmlns:xlink="http://www.w3.org/1999/xlink" x="0px" y="0px"
	 viewBox="0 0 40 32" style="enable-background:new 0 0 40 32;" xml:space="preserve">
<style type="text/css">
	.st0{fill:#F8B22B;}
</style>
<g>
	<g>
		<path class="st0" d="M24,32c-0.5,0-1.1-0.1-1.5-0.4l-6.4-3.5l-6.3,3.5c-1.1,0.6-2.4,0.5-3.4-0.2c-1-0.7-1.5-1.9-1.3-3.1l1.2-7.7
			l-5.4-5.5c-0.8-0.9-1.1-2.1-0.7-3.2s1.3-2,2.5-2.1l7.4-1.2l3.2-6.8C13.8,0.7,14.9,0,16.1,0s2.4,0.7,2.9,1.8l3.2,6.8l7.3,1.1
			c1.2,0.2,2.1,1,2.5,2.1l0,0c0.4,1.1,0.1,2.4-0.7,3.2l-5.4,5.5l1.2,7.7c0.2,1.2-0.3,2.4-1.3,3.1C25.2,31.8,24.6,32,24,32z
			 M16.1,25.8l7.3,4.1c0.4,0.2,0.9,0.2,1.2-0.1c0.4-0.3,0.6-0.7,0.5-1.2L23.7,20l6.1-6.3c0.3-0.3,0.4-0.8,0.3-1.2
			c-0.1-0.4-0.5-0.7-0.9-0.8l-8.3-1.3l-3.6-7.8C17,2.3,16.5,2,16.1,2S15.2,2.3,15,2.7l-3.6,7.8l-8.3,1.2c-0.4,0.1-0.8,0.4-0.9,0.8
			s0,0.9,0.3,1.2L8.6,20l-1.5,8.6C7,29,7.2,29.5,7.6,29.8s0.8,0.3,1.2,0.1L16.1,25.8z"/>
	</g>
</g>
</svg>
