<?xml version="1.0" encoding="utf-8"?>
<!-- Generator: Adobe Illustrator 19.1.0, SVG Export Plug-In . SVG Version: 6.00 Build 0)  -->
<svg version="1.1" id="图层_1" xmlns="http://www.w3.org/2000/svg" xmlns:xlink="http://www.w3.org/1999/xlink" x="0px" y="0px"
	 viewBox="0 0 40 32" style="enable-background:new 0 0 40 32;" xml:space="preserve">
<style type="text/css">
	.st0{fill:#F8B22B;}
</style>
<g>
	<path class="st0" d="M31.8,11.8c-0.3-0.8-1-1.4-1.8-1.6L21.7,9l-3.6-7.8C17.6,0.5,16.8,0,15.9,0s-1.7,0.5-2.1,1.3L10.2,9l-8.3,1.3
		C1,10.5,0.3,11,0.1,12c-0.3,0.8-0.1,1.7,0.5,2.4l6.1,6.3l-1.4,8.7c-0.1,0.9,0.2,1.8,0.9,2.3C6.6,31.9,7.1,32,7.5,32
		s0.8-0.1,1.1-0.3l7.3-4l7.3,4c0.4,0.2,0.7,0.3,1.1,0.3c0.5,0,0.9-0.1,1.3-0.4c0.7-0.5,1.1-1.4,0.9-2.3l-1.4-8.7l6.1-6.3
		C31.8,13.7,32.1,12.8,31.8,11.8L31.8,11.8z"/>
</g>
</svg>
