<?xml version="1.0" encoding="utf-8"?>
<!-- Generator: Adobe Illustrator 19.1.0, SVG Export Plug-In . SVG Version: 6.00 Build 0)  -->
<svg version="1.1" id="图层_1" xmlns="http://www.w3.org/2000/svg" xmlns:xlink="http://www.w3.org/1999/xlink" x="0px" y="0px"
	 viewBox="0 0 32 32" enable-background="new 0 0 32 32" xml:space="preserve">
<rect x="0" fill="#FFFFFF" width="32" height="32"/>
<g>
	<path fill="none" stroke="#272636" stroke-miterlimit="10" d="M0,0"/>
</g>
<path fill="#F90000" d="M31,2H1C0.45,2,0,1.55,0,1v0c0-0.55,0.45-1,1-1l30,0c0.55,0,1,0.45,1,1v0C32,1.55,31.55,2,31,2z"/>
<g>
	<g>
		<path fill="#F90000" d="M20.328,32.017h-8.655c-1.834,0-3.326-1.484-3.326-3.309v-7.317H4.752c-1.748,0-2.395-1.166-2.552-1.523
			c-0.157-0.359-0.576-1.628,0.62-2.903L13.629,5.44C14.244,4.784,15.108,4.408,16,4.408c0.891,0,1.756,0.376,2.371,1.032
			l10.808,11.525c1.199,1.278,0.777,2.547,0.619,2.905c-0.155,0.355-0.801,1.522-2.551,1.522h-3.595v7.317
			C23.653,30.533,22.162,32.017,20.328,32.017z"/>
	</g>
</g>
</svg>
