<?xml version="1.0" encoding="utf-8"?>
<!-- Generator: Adobe Illustrator 19.1.0, SVG Export Plug-In . SVG Version: 6.00 Build 0)  -->
<svg version="1.1" id="图层_1" xmlns="http://www.w3.org/2000/svg" xmlns:xlink="http://www.w3.org/1999/xlink" x="0px" y="0px"
	 viewBox="0 0 36 36" enable-background="new 0 0 36 36" xml:space="preserve">
<path fill="#F90000" d="M20.882,6.623c0,0-4.531-4.531-4.5-5.625s5-1.406,6.125,0c0.875,1.094,0.654,3.624,0.512,4.695
	c-0.045,0.338-0.038,0.681,0.028,1.015l0.398,2.04c0,0,8.125-1.906,4.312,6.312c0,0-3.68,11.168-17.992,20.168
	c0,0-2.539,1.686-2.539-0.626c0,0,8.344-8.791,7.781-23.041c0,0,0.688-4.312,5.438-2.875C20.444,8.685,21.882,7.873,20.882,6.623z"
	/>
</svg>
