<?xml version="1.0" encoding="utf-8"?>
<!-- Generator: Adobe Illustrator 19.1.0, SVG Export Plug-In . SVG Version: 6.00 Build 0)  -->
<svg version="1.1" id="图层_1" xmlns="http://www.w3.org/2000/svg" xmlns:xlink="http://www.w3.org/1999/xlink" x="0px" y="0px"
	 viewBox="2 -2 36 36" enable-background="new 2 -2 36 36" xml:space="preserve">
<path fill="#F90000" d="M25.445,6.748l-0.398-2.04c-0.066-0.334-0.073-0.677-0.028-1.015c0.142-1.071,0.363-3.601-0.512-4.695
	c-1.125-1.406-6.094-1.094-6.125,0s4.5,5.625,4.5,5.625c1,1.25-0.438,2.062-0.437,2.063c-4.75-1.437-5.438,2.875-5.438,2.875
	c0.563,14.25-7.781,23.041-7.781,23.041c0,2.312,2.539,0.626,2.539,0.626c14.312-9,17.992-20.168,17.992-20.168
	C33.57,4.842,25.445,6.748,25.445,6.748z M20.25-0.479c0.562-0.573,2.308-0.093,3.458,0.729c0.604,0.646,0.563,2.232,0.445,3.126
	c-0.021,0.363-0.047,0.69-0.074,0.999c0.001,0.002,0.002,0.005,0.004,0.007l-0.005,0.001c0-0.003,0.001-0.005,0.001-0.008
	C22.925,3.159,20.23,0.24,20.25-0.479z M28.25,13.208c0,0-5.174,11.655-17.129,19.172c0,0-0.543,0-0.121-0.523
	c0,0,7.97-9.343,7.5-21.246c0,0,0.896-3.358,4.545-2.493c0.113,0.033,0.223,0.067,0.325,0.078c0.016,0.005,0.03,0.006,0.047,0.011
	c0-0.003,0.001-0.007,0-0.009c0.005,0,0.009,0,0.014,0.001c-0.005,0.002-0.009,0.007-0.014,0.009l0.071-0.006
	c0.34,0.017,0.584-0.052,0.585-0.052l0.761-0.067C24.833,8.083,31.667,6.146,28.25,13.208z"/>
</svg>
